{
	"patcher" : 	{
		"fileversion" : 1,
		"appversion" : 		{
			"major" : 6,
			"minor" : 1,
			"revision" : 9,
			"architecture" : "x64"
		}
,
		"rect" : [ -140.0, 51.0, 1498.0, 942.0 ],
		"bglocked" : 0,
		"openinpresentation" : 0,
		"default_fontsize" : 12.0,
		"default_fontface" : 0,
		"default_fontname" : "Arial",
		"gridonopen" : 0,
		"gridsize" : [ 15.0, 15.0 ],
		"gridsnaponopen" : 0,
		"statusbarvisible" : 2,
		"toolbarvisible" : 1,
		"boxanimatetime" : 200,
		"imprint" : 0,
		"enablehscroll" : 1,
		"enablevscroll" : 1,
		"devicewidth" : 0.0,
		"description" : "",
		"digest" : "",
		"tags" : "",
		"boxes" : [ 			{
				"box" : 				{
					"fontname" : "Arial",
					"fontsize" : 12.0,
					"id" : "obj-24",
					"maxclass" : "newobj",
					"numinlets" : 1,
					"numoutlets" : 2,
					"outlettype" : [ "float", "bang" ],
					"patching_rect" : [ 1236.0, 345.0, 126.0, 20.0 ],
					"text" : "buffer~ wind harm.aiff"
				}

			}
, 			{
				"box" : 				{
					"id" : "obj-60",
					"maxclass" : "live.gain~",
					"numinlets" : 2,
					"numoutlets" : 5,
					"outlettype" : [ "signal", "signal", "", "float", "list" ],
					"parameter_enable" : 1,
					"patching_rect" : [ 781.0, 448.0, 48.0, 136.0 ],
					"saved_attribute_attributes" : 					{
						"valueof" : 						{
							"parameter_longname" : "live.gain~",
							"parameter_shortname" : "live.gain~",
							"parameter_type" : 0,
							"parameter_mmin" : -70.0,
							"parameter_mmax" : 6.0,
							"parameter_initial" : [ 0.0 ],
							"parameter_unitstyle" : 4
						}

					}
,
					"varname" : "live.gain~"
				}

			}
, 			{
				"box" : 				{
					"id" : "obj-59",
					"maxclass" : "meter~",
					"numinlets" : 1,
					"numoutlets" : 1,
					"outlettype" : [ "float" ],
					"patching_rect" : [ 772.0, 403.0, 80.0, 13.0 ]
				}

			}
, 			{
				"box" : 				{
					"fontname" : "Arial",
					"fontsize" : 12.0,
					"id" : "obj-58",
					"maxclass" : "newobj",
					"numinlets" : 2,
					"numoutlets" : 1,
					"outlettype" : [ "signal" ],
					"patching_rect" : [ 612.5, 409.0, 42.0, 20.0 ],
					"text" : "*~ 0.8"
				}

			}
, 			{
				"box" : 				{
					"fontname" : "Arial",
					"fontsize" : 12.0,
					"id" : "obj-55",
					"linecount" : 3,
					"maxclass" : "message",
					"numinlets" : 2,
					"numoutlets" : 1,
					"outlettype" : [ "" ],
					"patching_rect" : [ 635.5, 595.0, 55.0, 46.0 ],
					"text" : "1.498307 600. 83."
				}

			}
, 			{
				"box" : 				{
					"fontname" : "Arial",
					"fontsize" : 12.0,
					"id" : "obj-53",
					"maxclass" : "number",
					"numinlets" : 1,
					"numoutlets" : 2,
					"outlettype" : [ "int", "bang" ],
					"parameter_enable" : 0,
					"patching_rect" : [ 608.0, 185.0, 50.0, 20.0 ]
				}

			}
, 			{
				"box" : 				{
					"id" : "obj-49",
					"maxclass" : "button",
					"numinlets" : 1,
					"numoutlets" : 1,
					"outlettype" : [ "bang" ],
					"patching_rect" : [ 608.0, 109.0, 20.0, 20.0 ]
				}

			}
, 			{
				"box" : 				{
					"fontname" : "Arial",
					"fontsize" : 12.0,
					"id" : "obj-47",
					"maxclass" : "newobj",
					"numinlets" : 5,
					"numoutlets" : 4,
					"outlettype" : [ "int", "", "", "int" ],
					"patching_rect" : [ 608.0, 139.0, 87.0, 20.0 ],
					"text" : "counter 0 1 16"
				}

			}
, 			{
				"box" : 				{
					"id" : "obj-33",
					"maxclass" : "toggle",
					"numinlets" : 1,
					"numoutlets" : 1,
					"outlettype" : [ "int" ],
					"parameter_enable" : 0,
					"patching_rect" : [ 527.0, 226.0, 20.0, 20.0 ]
				}

			}
, 			{
				"box" : 				{
					"fontname" : "Arial",
					"fontsize" : 13.0,
					"id" : "obj-34",
					"maxclass" : "message",
					"numinlets" : 2,
					"numoutlets" : 1,
					"outlettype" : [ "" ],
					"patching_rect" : [ 527.0, 251.0, 58.0, 19.0 ],
					"text" : "steal $1"
				}

			}
, 			{
				"box" : 				{
					"fontname" : "Arial",
					"fontsize" : 12.0,
					"id" : "obj-40",
					"maxclass" : "number",
					"numinlets" : 1,
					"numoutlets" : 2,
					"outlettype" : [ "int", "bang" ],
					"parameter_enable" : 0,
					"patching_rect" : [ 727.5, 258.0, 50.0, 20.0 ]
				}

			}
, 			{
				"box" : 				{
					"fontname" : "Arial",
					"fontsize" : 12.0,
					"id" : "obj-41",
					"maxclass" : "message",
					"numinlets" : 2,
					"numoutlets" : 1,
					"outlettype" : [ "" ],
					"patching_rect" : [ 727.5, 287.0, 58.0, 18.0 ],
					"text" : "target $1"
				}

			}
, 			{
				"box" : 				{
					"fontname" : "Arial",
					"fontsize" : 12.0,
					"id" : "obj-42",
					"maxclass" : "number",
					"numinlets" : 1,
					"numoutlets" : 2,
					"outlettype" : [ "int", "bang" ],
					"parameter_enable" : 0,
					"patching_rect" : [ 673.5, 258.0, 50.0, 20.0 ]
				}

			}
, 			{
				"box" : 				{
					"fontname" : "Arial",
					"fontsize" : 12.0,
					"id" : "obj-43",
					"maxclass" : "message",
					"numinlets" : 2,
					"numoutlets" : 1,
					"outlettype" : [ "" ],
					"patching_rect" : [ 673.5, 287.0, 54.0, 18.0 ],
					"text" : "open $1"
				}

			}
, 			{
				"box" : 				{
					"fontname" : "Arial",
					"fontsize" : 12.0,
					"id" : "obj-44",
					"maxclass" : "number",
					"numinlets" : 1,
					"numoutlets" : 2,
					"outlettype" : [ "int", "bang" ],
					"parameter_enable" : 0,
					"patching_rect" : [ 612.5, 244.0, 50.0, 20.0 ]
				}

			}
, 			{
				"box" : 				{
					"fontname" : "Arial",
					"fontsize" : 12.0,
					"id" : "obj-45",
					"maxclass" : "message",
					"numinlets" : 2,
					"numoutlets" : 1,
					"outlettype" : [ "" ],
					"patching_rect" : [ 612.5, 287.0, 61.0, 18.0 ],
					"text" : "voices $1"
				}

			}
, 			{
				"box" : 				{
					"fontname" : "Arial",
					"fontsize" : 12.0,
					"id" : "obj-89",
					"maxclass" : "newobj",
					"numinlets" : 1,
					"numoutlets" : 1,
					"outlettype" : [ "signal" ],
					"patching_rect" : [ 612.5, 346.0, 174.0, 20.0 ],
					"text" : "poly~ Crosswinds-Playback 32"
				}

			}
, 			{
				"box" : 				{
					"fontname" : "Arial",
					"fontsize" : 12.0,
					"id" : "obj-29",
					"maxclass" : "newobj",
					"numinlets" : 3,
					"numoutlets" : 1,
					"outlettype" : [ "" ],
					"patching_rect" : [ 612.5, 557.0, 76.0, 20.0 ],
					"text" : "pack 0. 0. 0."
				}

			}
, 			{
				"box" : 				{
					"fontname" : "Arial",
					"fontsize" : 12.0,
					"id" : "obj-27",
					"maxclass" : "flonum",
					"numinlets" : 1,
					"numoutlets" : 2,
					"outlettype" : [ "float", "bang" ],
					"parameter_enable" : 0,
					"patching_rect" : [ 497.0, 598.0, 119.0, 20.0 ]
				}

			}
, 			{
				"box" : 				{
					"fontname" : "Arial",
					"fontsize" : 12.0,
					"id" : "obj-23",
					"maxclass" : "newobj",
					"numinlets" : 2,
					"numoutlets" : 1,
					"outlettype" : [ "int" ],
					"patching_rect" : [ 471.0, 497.0, 32.5, 20.0 ],
					"text" : "- 60"
				}

			}
, 			{
				"box" : 				{
					"fontname" : "Arial",
					"fontsize" : 13.0,
					"id" : "obj-19",
					"maxclass" : "newobj",
					"numinlets" : 1,
					"numoutlets" : 1,
					"outlettype" : [ "" ],
					"patching_rect" : [ 471.0, 524.0, 132.0, 21.0 ],
					"text" : "expr pow(2.\\,$f1/12)"
				}

			}
, 			{
				"box" : 				{
					"id" : "obj-21",
					"maxclass" : "meter~",
					"numinlets" : 1,
					"numoutlets" : 1,
					"outlettype" : [ "float" ],
					"patching_rect" : [ 1143.0, 595.0, 80.0, 13.0 ]
				}

			}
, 			{
				"box" : 				{
					"fontname" : "Arial",
					"fontsize" : 12.0,
					"id" : "obj-20",
					"maxclass" : "message",
					"numinlets" : 2,
					"numoutlets" : 1,
					"outlettype" : [ "" ],
					"patching_rect" : [ 1094.0, 477.0, 81.0, 18.0 ],
					"text" : "0, 2000 2000"
				}

			}
, 			{
				"box" : 				{
					"fontname" : "Arial",
					"fontsize" : 12.0,
					"id" : "obj-15",
					"maxclass" : "newobj",
					"numinlets" : 2,
					"numoutlets" : 2,
					"outlettype" : [ "signal", "bang" ],
					"patching_rect" : [ 1089.0, 506.0, 36.0, 20.0 ],
					"text" : "line~"
				}

			}
, 			{
				"box" : 				{
					"fontname" : "Arial",
					"fontsize" : 12.0,
					"id" : "obj-10",
					"maxclass" : "newobj",
					"numinlets" : 1,
					"numoutlets" : 2,
					"outlettype" : [ "signal", "bang" ],
					"patching_rect" : [ 1089.0, 541.0, 68.0, 20.0 ],
					"text" : "play~ Note"
				}

			}
, 			{
				"box" : 				{
					"id" : "obj-18",
					"maxclass" : "ezdac~",
					"numinlets" : 2,
					"numoutlets" : 0,
					"patching_rect" : [ 1089.0, 625.0, 45.0, 45.0 ]
				}

			}
, 			{
				"box" : 				{
					"id" : "obj-17",
					"maxclass" : "meter~",
					"numinlets" : 1,
					"numoutlets" : 1,
					"outlettype" : [ "float" ],
					"patching_rect" : [ 1083.0, 329.0, 80.0, 13.0 ]
				}

			}
, 			{
				"box" : 				{
					"id" : "obj-16",
					"maxclass" : "toggle",
					"numinlets" : 1,
					"numoutlets" : 1,
					"outlettype" : [ "int" ],
					"parameter_enable" : 0,
					"patching_rect" : [ 963.0, 315.0, 20.0, 20.0 ]
				}

			}
, 			{
				"box" : 				{
					"id" : "obj-14",
					"maxclass" : "ezadc~",
					"numinlets" : 1,
					"numoutlets" : 2,
					"outlettype" : [ "signal", "signal" ],
					"patching_rect" : [ 1001.0, 253.5, 45.0, 45.0 ]
				}

			}
, 			{
				"box" : 				{
					"fontname" : "Arial",
					"fontsize" : 12.0,
					"id" : "obj-13",
					"maxclass" : "newobj",
					"numinlets" : 3,
					"numoutlets" : 1,
					"outlettype" : [ "signal" ],
					"patching_rect" : [ 1001.0, 345.0, 80.0, 20.0 ],
					"text" : "record~ Note"
				}

			}
, 			{
				"box" : 				{
					"fontname" : "Arial",
					"fontsize" : 12.0,
					"id" : "obj-12",
					"maxclass" : "newobj",
					"numinlets" : 1,
					"numoutlets" : 2,
					"outlettype" : [ "float", "bang" ],
					"patching_rect" : [ 1223.0, 266.0, 107.0, 20.0 ],
					"text" : "buffer~ Note 2000"
				}

			}
, 			{
				"box" : 				{
					"fontname" : "Arial",
					"fontsize" : 12.0,
					"id" : "obj-11",
					"maxclass" : "number",
					"numinlets" : 1,
					"numoutlets" : 2,
					"outlettype" : [ "int", "bang" ],
					"parameter_enable" : 0,
					"patching_rect" : [ 322.0, 557.0, 50.0, 20.0 ]
				}

			}
, 			{
				"box" : 				{
					"fontname" : "Arial",
					"fontsize" : 12.0,
					"id" : "obj-3",
					"maxclass" : "newobj",
					"numinlets" : 3,
					"numoutlets" : 0,
					"patching_rect" : [ 406.0, 639.5, 51.0, 20.0 ],
					"text" : "noteout"
				}

			}
, 			{
				"box" : 				{
					"fontname" : "Arial",
					"fontsize" : 9.0,
					"id" : "obj-6",
					"linecount" : 4,
					"maxclass" : "newobj",
					"numinlets" : 3,
					"numoutlets" : 2,
					"outlettype" : [ "float", "float" ],
					"patcher" : 					{
						"fileversion" : 1,
						"appversion" : 						{
							"major" : 6,
							"minor" : 1,
							"revision" : 9,
							"architecture" : "x64"
						}
,
						"rect" : [ 302.0, 70.0, 318.0, 318.0 ],
						"bglocked" : 0,
						"openinpresentation" : 0,
						"default_fontsize" : 12.0,
						"default_fontface" : 0,
						"default_fontname" : "Arial",
						"gridonopen" : 0,
						"gridsize" : [ 15.0, 15.0 ],
						"gridsnaponopen" : 0,
						"statusbarvisible" : 2,
						"toolbarvisible" : 1,
						"boxanimatetime" : 200,
						"imprint" : 0,
						"enablehscroll" : 1,
						"enablevscroll" : 1,
						"devicewidth" : 0.0,
						"description" : "",
						"digest" : "",
						"tags" : "",
						"boxes" : [ 							{
								"box" : 								{
									"attr" : "repeatmode",
									"fontname" : "Arial",
									"fontsize" : 12.0,
									"id" : "obj-5",
									"maxclass" : "attrui",
									"numinlets" : 1,
									"numoutlets" : 1,
									"outlettype" : [ "" ],
									"patching_rect" : [ 20.0, 107.0, 150.0, 20.0 ]
								}

							}
, 							{
								"box" : 								{
									"comment" : "",
									"id" : "obj-3",
									"maxclass" : "outlet",
									"numinlets" : 1,
									"numoutlets" : 0,
									"patching_rect" : [ 208.5, 243.0, 15.0, 15.0 ]
								}

							}
, 							{
								"box" : 								{
									"comment" : "",
									"id" : "obj-2",
									"maxclass" : "inlet",
									"numinlets" : 0,
									"numoutlets" : 1,
									"outlettype" : [ "int" ],
									"patching_rect" : [ 170.0, 66.0, 31.0, 31.0 ]
								}

							}
, 							{
								"box" : 								{
									"comment" : "",
									"id" : "obj-1",
									"maxclass" : "inlet",
									"numinlets" : 0,
									"numoutlets" : 1,
									"outlettype" : [ "int" ],
									"patching_rect" : [ 208.0, 66.0, 31.0, 31.0 ]
								}

							}
, 							{
								"box" : 								{
									"comment" : "",
									"id" : "obj-9",
									"maxclass" : "inlet",
									"numinlets" : 0,
									"numoutlets" : 1,
									"outlettype" : [ "int" ],
									"patching_rect" : [ 133.0, 66.0, 31.0, 31.0 ]
								}

							}
, 							{
								"box" : 								{
									"fontname" : "Arial",
									"fontsize" : 9.0,
									"id" : "obj-8",
									"maxclass" : "newobj",
									"numinlets" : 3,
									"numoutlets" : 2,
									"outlettype" : [ "float", "float" ],
									"patching_rect" : [ 133.0, 169.0, 160.0, 17.0 ],
									"text" : "makenote 120 400 @repeatmode 1"
								}

							}
, 							{
								"box" : 								{
									"comment" : "",
									"id" : "obj-10",
									"maxclass" : "outlet",
									"numinlets" : 1,
									"numoutlets" : 0,
									"patching_rect" : [ 133.5, 243.0, 15.0, 15.0 ]
								}

							}
 ],
						"lines" : [ 							{
								"patchline" : 								{
									"destination" : [ "obj-8", 2 ],
									"disabled" : 0,
									"hidden" : 0,
									"source" : [ "obj-1", 0 ]
								}

							}
, 							{
								"patchline" : 								{
									"destination" : [ "obj-8", 1 ],
									"disabled" : 0,
									"hidden" : 0,
									"midpoints" : [ 179.5, 98.0, 213.0, 98.0 ],
									"source" : [ "obj-2", 0 ]
								}

							}
, 							{
								"patchline" : 								{
									"destination" : [ "obj-8", 0 ],
									"disabled" : 0,
									"hidden" : 0,
									"source" : [ "obj-5", 0 ]
								}

							}
, 							{
								"patchline" : 								{
									"destination" : [ "obj-10", 0 ],
									"disabled" : 0,
									"hidden" : 0,
									"source" : [ "obj-8", 0 ]
								}

							}
, 							{
								"patchline" : 								{
									"destination" : [ "obj-3", 0 ],
									"disabled" : 0,
									"hidden" : 0,
									"source" : [ "obj-8", 1 ]
								}

							}
, 							{
								"patchline" : 								{
									"destination" : [ "obj-8", 0 ],
									"disabled" : 0,
									"hidden" : 0,
									"source" : [ "obj-9", 0 ]
								}

							}
 ]
					}
,
					"patching_rect" : [ 406.0, 577.5, 35.0, 48.0 ],
					"saved_object_attributes" : 					{
						"default_fontface" : 0,
						"default_fontname" : "Arial",
						"default_fontsize" : 12.0,
						"description" : "",
						"digest" : "",
						"fontface" : 0,
						"fontname" : "Arial",
						"fontsize" : 12.0,
						"globalpatchername" : "",
						"tags" : ""
					}
,
					"text" : "p MIDI-keyboard"
				}

			}
, 			{
				"box" : 				{
					"fontname" : "Arial",
					"fontsize" : 12.0,
					"id" : "obj-8",
					"maxclass" : "newobj",
					"numinlets" : 1,
					"numoutlets" : 2,
					"outlettype" : [ "bang", "int" ],
					"patching_rect" : [ 199.0, 485.0, 32.5, 20.0 ],
					"text" : "t b i"
				}

			}
, 			{
				"box" : 				{
					"fontname" : "Arial",
					"fontsize" : 12.0,
					"id" : "obj-7",
					"maxclass" : "newobj",
					"numinlets" : 2,
					"numoutlets" : 1,
					"outlettype" : [ "bang" ],
					"patching_rect" : [ 199.0, 512.0, 49.0, 20.0 ],
					"text" : "delay 0"
				}

			}
, 			{
				"box" : 				{
					"fontname" : "Arial",
					"fontsize" : 12.0,
					"id" : "obj-4",
					"maxclass" : "message",
					"numinlets" : 2,
					"numoutlets" : 1,
					"outlettype" : [ "" ],
					"patching_rect" : [ 280.0, 506.0, 50.0, 18.0 ],
					"text" : "67"
				}

			}
, 			{
				"box" : 				{
					"fontname" : "Arial",
					"fontsize" : 12.0,
					"id" : "obj-1",
					"maxclass" : "newobj",
					"numinlets" : 8,
					"numoutlets" : 8,
					"outlettype" : [ "int", "int", "int", "int", "int", "int", "int", "int" ],
					"patching_rect" : [ 296.0, 439.0, 145.0, 20.0 ],
					"save" : [ "#N", "detonate", "Crosswinds.mid", ";", "#X", "setparam", 0, "Time", 0, 0, 999999, 0, 1000, 200, 0, ";", "#X", "setparam", 1, "Pitch", 0, 0, 127, 60, 12, 4, 0, ";", "#X", "setparam", 2, "Vel", 0, 0, 127, 64, 12, 4, 0, ";", "#X", "setparam", 3, "Dur", 0, 1, 99999, 200, 800, 200, 0, ";", "#X", "setparam", 4, "Chan", 0, 1, 16, 1, 8, 1, 0, ";", "#X", "setparam", 5, "Track", 0, 1, 32, 1, 8, 1, 0, ";", "#X", "setparam", 6, "X1", 0, 0, 999, 0, 80, 20, 0, ";", "#X", "setparam", 7, "X2", 0, 0, 999, 0, 80, 20, 0, ";", "#X", "restore", ";", "#X", 1500, 60, 69, 300, 1, 2, 0, 0, ";", "#X", 300, 64, 87, 150, 1, 2, 0, 0, ";", "#X", 150, 67, 81, 450, 1, 2, 0, 0, ";", "#X", 450, 74, 91, 450, 1, 2, 0, 0, ";", "#X", 450, 72, 73, 750, 1, 2, 0, 0, ";", "#X", 750, 74, 80, 300, 1, 2, 0, 0, ";", "#X", 300, 72, 71, 150, 1, 2, 0, 0, ";", "#X", 150, 71, 74, 150, 1, 2, 0, 0, ";", "#X", 150, 74, 78, 150, 1, 2, 0, 0, ";", "#X", 150, 72, 72, 150, 1, 2, 0, 0, ";", "#X", 150, 71, 74, 300, 1, 2, 0, 0, ";", "#X", 300, 72, 76, 450, 1, 2, 0, 0, ";", "#X", 450, 71, 70, 450, 1, 2, 0, 0, ";", "#X", 450, 76, 87, 300, 1, 2, 0, 0, ";", "#X", 300, 74, 77, 98, 1, 2, 0, 0, ";", "#X", 98, 72, 77, 98, 1, 2, 0, 0, ";", "#X", 101, 71, 77, 98, 1, 2, 0, 0, ";", "#X", 101, 69, 77, 98, 1, 2, 0, 0, ";", "#X", 98, 67, 77, 98, 1, 2, 0, 0, ";", "#X", 101, 65, 77, 98, 1, 2, 0, 0, ";", "#X", 101, 64, 55, 150, 1, 2, 0, 0, ";", "#X", 300, 65, 78, 150, 1, 2, 0, 0, ";", "#X", 300, 67, 86, 450, 1, 2, 0, 0, ";", "#X", 450, 65, 74, 150, 1, 2, 0, 0, ";", "#X", 150, 64, 73, 150, 1, 2, 0, 0, ";", "#X", 150, 62, 69, 300, 1, 2, 0, 0, ";", "#X", 300, 60, 73, 450, 1, 2, 0, 0, ";", "#X", 450, 69, 90, 300, 1, 2, 0, 0, ";", "#X", 300, 67, 78, 300, 1, 2, 0, 0, ";", "#X", 300, 65, 70, 300, 1, 2, 0, 0, ";", "#X", 300, 65, 77, 450, 1, 2, 0, 0, ";", "#X", 450, 67, 80, 300, 1, 2, 0, 0, ";", "#X", 300, 65, 71, 150, 1, 2, 0, 0, ";", "#X", 300, 64, 75, 450, 1, 2, 0, 0, ";", "#X", 450, 60, 67, 300, 1, 2, 0, 0, ";", "#X", 300, 64, 84, 98, 1, 2, 0, 0, ";", "#X", 98, 65, 81, 101, 1, 2, 0, 0, ";", "#X", 101, 67, 81, 101, 1, 2, 0, 0, ";", "#X", 101, 69, 84, 98, 1, 2, 0, 0, ";", "#X", 98, 71, 81, 101, 1, 2, 0, 0, ";", "#X", 101, 72, 80, 101, 1, 2, 0, 0, ";", "#X", 101, 74, 86, 450, 1, 2, 0, 0, ";", "#X", 450, 72, 68, 600, 1, 2, 0, 0, ";", "#X", 600, 71, 76, 150, 1, 2, 0, 0, ";", "#X", 150, 74, 82, 450, 1, 2, 0, 0, ";", "#X", 450, 72, 76, 450, 1, 2, 0, 0, ";", "#X", 450, 69, 70, 300, 1, 2, 0, 0, ";", "#X", 300, 72, 86, 450, 1, 2, 0, 0, ";", "#X", 450, 71, 73, 450, 1, 2, 0, 0, ";", "#X", 450, 76, 87, 900, 1, 2, 0, 0, ";", "#X", 1200, 64, 72, 75, 1, 2, 0, 0, ";", "#X", 150, 65, 80, 75, 1, 2, 0, 0, ";", "#X", 150, 67, 75, 450, 1, 2, 0, 0, ";", "#X", 450, 65, 75, 150, 1, 2, 0, 0, ";", "#X", 150, 64, 71, 150, 1, 2, 0, 0, ";", "#X", 150, 62, 72, 300, 1, 2, 0, 0, ";", "#X", 300, 60, 74, 450, 1, 2, 0, 0, ";", "#X", 450, 69, 96, 300, 1, 2, 0, 0, ";", "#X", 300, 67, 78, 300, 1, 2, 0, 0, ";", "#X", 300, 65, 73, 300, 1, 2, 0, 0, ";", "#X", 300, 64, 73, 450, 1, 2, 0, 0, ";", "#X", 450, 65, 81, 450, 1, 2, 0, 0, ";", "#X", 450, 67, 77, 600, 1, 2, 0, 0, ";", "#X", 600, 60, 63, 300, 1, 2, 0, 0, ";", "#X", 300, 64, 85, 300, 1, 2, 0, 0, ";", "#X", 300, 67, 81, 300, 1, 2, 0, 0, ";", "#X", 300, 74, 89, 450, 1, 2, 0, 0, ";", "#X", 450, 72, 76, 750, 1, 2, 0, 0, ";", "#X", 750, 74, 83, 300, 1, 2, 0, 0, ";", "#X", 300, 72, 73, 150, 1, 2, 0, 0, ";", "#X", 150, 71, 74, 150, 1, 2, 0, 0, ";", "#X", 150, 74, 86, 150, 1, 2, 0, 0, ";", "#X", 150, 72, 74, 150, 1, 2, 0, 0, ";", "#X", 150, 71, 72, 300, 1, 2, 0, 0, ";", "#X", 300, 72, 81, 450, 1, 2, 0, 0, ";", "#X", 450, 71, 77, 450, 1, 2, 0, 0, ";", "#X", 450, 67, 70, 900, 1, 2, 0, 0, ";", "#X", 900, 64, 69, 150, 1, 2, 0, 0, ";", "#X", 300, 65, 80, 150, 1, 2, 0, 0, ";", "#X", 300, 67, 86, 450, 1, 2, 0, 0, ";", "#X", 450, 65, 70, 150, 1, 2, 0, 0, ";", "#X", 150, 64, 70, 150, 1, 2, 0, 0, ";", "#X", 150, 62, 67, 300, 1, 2, 0, 0, ";", "#X", 300, 60, 68, 450, 1, 2, 0, 0, ";", "#X", 450, 69, 89, 300, 1, 2, 0, 0, ";", "#X", 300, 67, 71, 300, 1, 2, 0, 0, ";", "#X", 300, 65, 75, 300, 1, 2, 0, 0, ";", "#X", 300, 65, 81, 450, 1, 2, 0, 0, ";", "#X", 450, 67, 78, 300, 1, 2, 0, 0, ";", "#X", 300, 65, 70, 150, 1, 2, 0, 0, ";", "#X", 300, 64, 72, 450, 1, 2, 0, 0, ";", "#X", 450, 60, 67, 300, 1, 2, 0, 0, ";", "#X", 300, 64, 82, 300, 1, 2, 0, 0, ";", "#X", 300, 67, 86, 300, 1, 2, 0, 0, ";", "#X", 300, 74, 97, 450, 1, 2, 0, 0, ";", "#X", 450, 72, 78, 600, 1, 2, 0, 0, ";", "#X", 600, 71, 73, 150, 1, 2, 0, 0, ";", "#X", 150, 74, 77, 450, 1, 2, 0, 0, ";", "#X", 450, 72, 80, 450, 1, 2, 0, 0, ";", "#X", 450, 71, 74, 300, 1, 2, 0, 0, ";", "#X", 300, 72, 82, 450, 1, 2, 0, 0, ";", "#X", 450, 71, 75, 450, 1, 2, 0, 0, ";", "#X", 450, 67, 68, 900, 1, 2, 0, 0, ";", "#X", 1200, 64, 66, 75, 1, 2, 0, 0, ";", "#X", 150, 65, 79, 75, 1, 2, 0, 0, ";", "#X", 150, 67, 81, 450, 1, 2, 0, 0, ";", "#X", 450, 65, 72, 150, 1, 2, 0, 0, ";", "#X", 150, 64, 73, 150, 1, 2, 0, 0, ";", "#X", 150, 62, 71, 300, 1, 2, 0, 0, ";", "#X", 300, 60, 71, 450, 1, 2, 0, 0, ";", "#X", 450, 69, 94, 300, 1, 2, 0, 0, ";", "#X", 300, 67, 77, 300, 1, 2, 0, 0, ";", "#X", 300, 65, 70, 300, 1, 2, 0, 0, ";", "#X", 300, 64, 75, 450, 1, 2, 0, 0, ";", "#X", 450, 65, 79, 450, 1, 2, 0, 0, ";", "#X", 450, 67, 83, 600, 1, 2, 0, 0, ";", "#X", "stop", ";" ],
					"text" : "detonate Crosswinds.mid"
				}

			}
, 			{
				"box" : 				{
					"fontname" : "Arial",
					"fontsize" : 12.0,
					"id" : "obj-2",
					"maxclass" : "message",
					"numinlets" : 2,
					"numoutlets" : 1,
					"outlettype" : [ "" ],
					"patching_rect" : [ 296.0, 372.0, 50.0, 18.0 ],
					"text" : "start"
				}

			}
, 			{
				"box" : 				{
					"fontname" : "Arial",
					"fontsize" : 12.0,
					"id" : "obj-5",
					"maxclass" : "message",
					"numinlets" : 2,
					"numoutlets" : 1,
					"outlettype" : [ "" ],
					"patching_rect" : [ 349.0, 409.0, 35.0, 18.0 ],
					"text" : "read"
				}

			}
, 			{
				"box" : 				{
					"fontname" : "Arial",
					"fontsize" : 12.0,
					"id" : "obj-9",
					"maxclass" : "message",
					"numinlets" : 2,
					"numoutlets" : 1,
					"outlettype" : [ "" ],
					"patching_rect" : [ 236.0, 409.0, 50.0, 18.0 ],
					"text" : "next"
				}

			}
, 			{
				"box" : 				{
					"fontname" : "Arial",
					"fontsize" : 12.0,
					"id" : "obj-61",
					"maxclass" : "message",
					"numinlets" : 2,
					"numoutlets" : 1,
					"outlettype" : [ "" ],
					"patching_rect" : [ 359.0, 372.0, 50.0, 18.0 ],
					"text" : "stop"
				}

			}
, 			{
				"box" : 				{
					"fontname" : "Arial",
					"fontsize" : 12.0,
					"id" : "obj-22",
					"maxclass" : "message",
					"numinlets" : 2,
					"numoutlets" : 1,
					"outlettype" : [ "" ],
					"patching_rect" : [ 1223.0, 236.0, 92.0, 18.0 ],
					"text" : "apply hamming"
				}

			}
 ],
		"lines" : [ 			{
				"patchline" : 				{
					"destination" : [ "obj-11", 0 ],
					"disabled" : 0,
					"hidden" : 0,
					"source" : [ "obj-1", 3 ]
				}

			}
, 			{
				"patchline" : 				{
					"destination" : [ "obj-23", 0 ],
					"disabled" : 0,
					"hidden" : 0,
					"source" : [ "obj-1", 1 ]
				}

			}
, 			{
				"patchline" : 				{
					"destination" : [ "obj-29", 1 ],
					"disabled" : 0,
					"hidden" : 0,
					"source" : [ "obj-1", 3 ]
				}

			}
, 			{
				"patchline" : 				{
					"destination" : [ "obj-29", 2 ],
					"disabled" : 0,
					"hidden" : 0,
					"source" : [ "obj-1", 2 ]
				}

			}
, 			{
				"patchline" : 				{
					"destination" : [ "obj-4", 1 ],
					"disabled" : 0,
					"hidden" : 0,
					"source" : [ "obj-1", 1 ]
				}

			}
, 			{
				"patchline" : 				{
					"destination" : [ "obj-6", 2 ],
					"disabled" : 0,
					"hidden" : 0,
					"source" : [ "obj-1", 3 ]
				}

			}
, 			{
				"patchline" : 				{
					"destination" : [ "obj-6", 1 ],
					"disabled" : 0,
					"hidden" : 0,
					"source" : [ "obj-1", 2 ]
				}

			}
, 			{
				"patchline" : 				{
					"destination" : [ "obj-6", 0 ],
					"disabled" : 0,
					"hidden" : 0,
					"source" : [ "obj-1", 1 ]
				}

			}
, 			{
				"patchline" : 				{
					"destination" : [ "obj-8", 0 ],
					"disabled" : 0,
					"hidden" : 0,
					"source" : [ "obj-1", 0 ]
				}

			}
, 			{
				"patchline" : 				{
					"destination" : [ "obj-18", 0 ],
					"disabled" : 0,
					"hidden" : 0,
					"source" : [ "obj-10", 0 ]
				}

			}
, 			{
				"patchline" : 				{
					"destination" : [ "obj-21", 0 ],
					"disabled" : 0,
					"hidden" : 0,
					"source" : [ "obj-10", 0 ]
				}

			}
, 			{
				"patchline" : 				{
					"destination" : [ "obj-13", 0 ],
					"disabled" : 0,
					"hidden" : 0,
					"source" : [ "obj-14", 0 ]
				}

			}
, 			{
				"patchline" : 				{
					"destination" : [ "obj-17", 0 ],
					"disabled" : 0,
					"hidden" : 0,
					"source" : [ "obj-14", 0 ]
				}

			}
, 			{
				"patchline" : 				{
					"destination" : [ "obj-10", 0 ],
					"disabled" : 0,
					"hidden" : 0,
					"source" : [ "obj-15", 0 ]
				}

			}
, 			{
				"patchline" : 				{
					"destination" : [ "obj-13", 0 ],
					"disabled" : 0,
					"hidden" : 0,
					"source" : [ "obj-16", 0 ]
				}

			}
, 			{
				"patchline" : 				{
					"destination" : [ "obj-27", 0 ],
					"disabled" : 0,
					"hidden" : 0,
					"source" : [ "obj-19", 0 ]
				}

			}
, 			{
				"patchline" : 				{
					"destination" : [ "obj-29", 0 ],
					"disabled" : 0,
					"hidden" : 0,
					"source" : [ "obj-19", 0 ]
				}

			}
, 			{
				"patchline" : 				{
					"destination" : [ "obj-1", 0 ],
					"disabled" : 0,
					"hidden" : 0,
					"source" : [ "obj-2", 0 ]
				}

			}
, 			{
				"patchline" : 				{
					"destination" : [ "obj-15", 0 ],
					"disabled" : 0,
					"hidden" : 0,
					"source" : [ "obj-20", 0 ]
				}

			}
, 			{
				"patchline" : 				{
					"destination" : [ "obj-12", 0 ],
					"disabled" : 0,
					"hidden" : 0,
					"source" : [ "obj-22", 0 ]
				}

			}
, 			{
				"patchline" : 				{
					"destination" : [ "obj-19", 0 ],
					"disabled" : 0,
					"hidden" : 0,
					"source" : [ "obj-23", 0 ]
				}

			}
, 			{
				"patchline" : 				{
					"destination" : [ "obj-55", 1 ],
					"disabled" : 0,
					"hidden" : 0,
					"source" : [ "obj-29", 0 ]
				}

			}
, 			{
				"patchline" : 				{
					"destination" : [ "obj-89", 0 ],
					"disabled" : 0,
					"hidden" : 0,
					"source" : [ "obj-29", 0 ]
				}

			}
, 			{
				"patchline" : 				{
					"destination" : [ "obj-34", 0 ],
					"disabled" : 0,
					"hidden" : 0,
					"source" : [ "obj-33", 0 ]
				}

			}
, 			{
				"patchline" : 				{
					"destination" : [ "obj-89", 0 ],
					"disabled" : 0,
					"hidden" : 0,
					"midpoints" : [ 536.5, 332.0, 622.0, 332.0 ],
					"source" : [ "obj-34", 0 ]
				}

			}
, 			{
				"patchline" : 				{
					"destination" : [ "obj-41", 0 ],
					"disabled" : 0,
					"hidden" : 0,
					"source" : [ "obj-40", 0 ]
				}

			}
, 			{
				"patchline" : 				{
					"destination" : [ "obj-89", 0 ],
					"disabled" : 0,
					"hidden" : 0,
					"midpoints" : [ 737.0, 305.0, 712.5, 305.0, 712.5, 332.0, 622.0, 332.0 ],
					"source" : [ "obj-41", 0 ]
				}

			}
, 			{
				"patchline" : 				{
					"destination" : [ "obj-43", 0 ],
					"disabled" : 0,
					"hidden" : 0,
					"source" : [ "obj-42", 0 ]
				}

			}
, 			{
				"patchline" : 				{
					"destination" : [ "obj-89", 0 ],
					"disabled" : 0,
					"hidden" : 0,
					"midpoints" : [ 683.0, 332.0, 622.0, 332.0 ],
					"source" : [ "obj-43", 0 ]
				}

			}
, 			{
				"patchline" : 				{
					"destination" : [ "obj-45", 0 ],
					"disabled" : 0,
					"hidden" : 0,
					"source" : [ "obj-44", 0 ]
				}

			}
, 			{
				"patchline" : 				{
					"destination" : [ "obj-47", 4 ],
					"disabled" : 0,
					"hidden" : 0,
					"midpoints" : [ 622.0, 264.0, 597.0, 264.0, 597.0, 171.0, 705.0, 171.0, 705.0, 135.0, 685.5, 135.0 ],
					"source" : [ "obj-44", 0 ]
				}

			}
, 			{
				"patchline" : 				{
					"destination" : [ "obj-89", 0 ],
					"disabled" : 0,
					"hidden" : 0,
					"midpoints" : [ 622.0, 305.0, 622.0, 305.0 ],
					"source" : [ "obj-45", 0 ]
				}

			}
, 			{
				"patchline" : 				{
					"destination" : [ "obj-53", 0 ],
					"disabled" : 0,
					"hidden" : 0,
					"source" : [ "obj-47", 0 ]
				}

			}
, 			{
				"patchline" : 				{
					"destination" : [ "obj-47", 0 ],
					"disabled" : 0,
					"hidden" : 0,
					"source" : [ "obj-49", 0 ]
				}

			}
, 			{
				"patchline" : 				{
					"destination" : [ "obj-1", 0 ],
					"disabled" : 0,
					"hidden" : 0,
					"source" : [ "obj-5", 0 ]
				}

			}
, 			{
				"patchline" : 				{
					"destination" : [ "obj-40", 0 ],
					"disabled" : 0,
					"hidden" : 0,
					"source" : [ "obj-53", 0 ]
				}

			}
, 			{
				"patchline" : 				{
					"destination" : [ "obj-59", 0 ],
					"disabled" : 0,
					"hidden" : 0,
					"source" : [ "obj-58", 0 ]
				}

			}
, 			{
				"patchline" : 				{
					"destination" : [ "obj-18", 0 ],
					"disabled" : 0,
					"hidden" : 0,
					"source" : [ "obj-60", 1 ]
				}

			}
, 			{
				"patchline" : 				{
					"destination" : [ "obj-18", 1 ],
					"disabled" : 0,
					"hidden" : 0,
					"source" : [ "obj-60", 0 ]
				}

			}
, 			{
				"patchline" : 				{
					"destination" : [ "obj-1", 0 ],
					"disabled" : 0,
					"hidden" : 0,
					"source" : [ "obj-61", 0 ]
				}

			}
, 			{
				"patchline" : 				{
					"destination" : [ "obj-9", 0 ],
					"disabled" : 0,
					"hidden" : 0,
					"midpoints" : [ 208.5, 534.0, 186.0, 534.0, 186.0, 405.0, 245.5, 405.0 ],
					"source" : [ "obj-7", 0 ]
				}

			}
, 			{
				"patchline" : 				{
					"destination" : [ "obj-49", 0 ],
					"disabled" : 0,
					"hidden" : 0,
					"source" : [ "obj-8", 0 ]
				}

			}
, 			{
				"patchline" : 				{
					"destination" : [ "obj-7", 1 ],
					"disabled" : 0,
					"hidden" : 0,
					"source" : [ "obj-8", 1 ]
				}

			}
, 			{
				"patchline" : 				{
					"destination" : [ "obj-7", 0 ],
					"disabled" : 0,
					"hidden" : 0,
					"source" : [ "obj-8", 0 ]
				}

			}
, 			{
				"patchline" : 				{
					"destination" : [ "obj-58", 0 ],
					"disabled" : 0,
					"hidden" : 0,
					"source" : [ "obj-89", 0 ]
				}

			}
, 			{
				"patchline" : 				{
					"destination" : [ "obj-60", 0 ],
					"disabled" : 0,
					"hidden" : 0,
					"source" : [ "obj-89", 0 ]
				}

			}
, 			{
				"patchline" : 				{
					"destination" : [ "obj-1", 0 ],
					"disabled" : 0,
					"hidden" : 0,
					"source" : [ "obj-9", 0 ]
				}

			}
 ],
		"parameters" : 		{
			"obj-60" : [ "live.gain~", "live.gain~", 0 ]
		}
,
		"dependency_cache" : [ 			{
				"name" : "Crosswinds-Playback.maxpat",
				"bootpath" : "/Users/Kyle/Dropbox/Scores",
				"patcherrelativepath" : ".",
				"type" : "JSON",
				"implicit" : 1
			}
 ]
	}

}
